<svg width="302.9650390625px" height="183.2px" xmlns="http://www.w3.org/2000/svg" viewBox="98.51748046875 -16.599999999999994 302.9650390625 183.2" style="background: rgb(253, 253, 253);" preserveAspectRatio="xMidYMid"><defs><filter id="editing-vr"><feFlood flood-color="#bbcedd" flood-opacity="0.7" result="c1"></feFlood><feFlood flood-color="#eb0f77" flood-opacity="0.7" result="c3"></feFlood><feComposite operator="in" in="c1" in2="SourceAlpha" result="text-c1"></feComposite><feComposite operator="in" in="c3" in2="SourceAlpha" result="text-c3"></feComposite><feOffset in="text-c1" dx="5" dy="-1" result="text1"></feOffset><feOffset in="text-c3" dx="-5" dy="1" result="text3"></feOffset><feBlend in="SourceGraphic" in2="text1" mode="multiply" result="text4"></feBlend><feBlend in="text4" in2="text3" mode="multiply"></feBlend></filter></defs><g filter="url(#editing-vr)"><g transform="translate(145.99999618530273, 110.0099983215332)"><path d="M8.98-10.01L8.98-60.01L8.98-60.01Q8.98-62.06 9.77-63.89L9.77-63.89L9.77-63.89Q10.55-65.72 11.91-67.07L11.91-67.07L11.91-67.07Q13.28-68.41 15.11-69.21L15.11-69.21L15.11-69.21Q16.94-70.02 18.99-70.02L18.99-70.02L56.98-70.02L56.98-70.02Q59.03-70.02 60.86-69.21L60.86-69.21L60.86-69.21Q62.70-68.41 64.06-67.07L64.06-67.07L64.06-67.07Q65.43-65.72 66.21-63.89L66.21-63.89L66.21-63.89Q66.99-62.06 66.99-60.01L66.99-60.01L66.99-50.98L56.98-50.98L56.98-60.01L18.99-60.01L18.99-10.01L56.98-10.01L56.98-18.99L66.99-18.99L66.99-10.01L66.99-10.01Q66.99-7.96 66.21-6.13L66.21-6.13L66.21-6.13Q65.43-4.30 64.06-2.93L64.06-2.93L64.06-2.93Q62.70-1.56 60.86-0.78L60.86-0.78L60.86-0.78Q59.03 0 56.98 0L56.98 0L18.99 0L18.99 0Q16.94 0 15.11-0.78L15.11-0.78L15.11-0.78Q13.28-1.56 11.91-2.93L11.91-2.93L11.91-2.93Q10.55-4.30 9.77-6.13L9.77-6.13L9.77-6.13Q8.98-7.96 8.98-10.01L8.98-10.01ZM77.00-60.01L77.00-70.02L133.01-70.02L133.01-60.01L110.01-60.01L110.01 0L100 0L100-60.01L77.00-60.01ZM189.01-29.98L155.03-29.98L155.03-29.98Q152.98-29.98 151.15-30.79L151.15-30.79L151.15-30.79Q149.32-31.59 147.95-32.93L147.95-32.93L147.95-32.93Q146.58-34.28 145.80-36.11L145.80-36.11L145.80-36.11Q145.02-37.94 145.02-39.99L145.02-39.99L145.02-60.01L145.02-60.01Q145.02-62.06 145.80-63.89L145.80-63.89L145.80-63.89Q146.58-65.72 147.95-67.07L147.95-67.07L147.95-67.07Q149.32-68.41 151.15-69.21L151.15-69.21L151.15-69.21Q152.98-70.02 155.03-70.02L155.03-70.02L189.01-70.02L189.01-70.02Q191.06-70.02 192.90-69.21L192.90-69.21L192.90-69.21Q194.73-68.41 196.09-67.07L196.09-67.07L196.09-67.07Q197.46-65.72 198.24-63.89L198.24-63.89L198.24-63.89Q199.02-62.06 199.02-60.01L199.02-60.01L199.02-50.98L189.01-50.98L189.01-60.01L155.03-60.01L155.03-39.99L189.01-39.99L189.01-39.99Q191.06-39.99 192.90-39.21L192.90-39.21L192.90-39.21Q194.73-38.43 196.09-37.06L196.09-37.06L196.09-37.06Q197.46-35.69 198.24-33.86L198.24-33.86L198.24-33.86Q199.02-32.03 199.02-29.98L199.02-29.98L199.02-10.01L199.02-10.01Q199.02-7.96 198.24-6.13L198.24-6.13L198.24-6.13Q197.46-4.30 196.09-2.93L196.09-2.93L196.09-2.93Q194.73-1.56 192.90-0.78L192.90-0.78L192.90-0.78Q191.06 0 189.01 0L189.01 0L154.05 0L154.05 0Q152.00 0 150.17-0.78L150.17-0.78L150.17-0.78Q148.34-1.56 146.97-2.93L146.97-2.93L146.97-2.93Q145.61-4.30 144.82-6.13L144.82-6.13L144.82-6.13Q144.04-7.96 144.04-10.01L144.04-10.01L144.04-18.99L154.05-18.99L154.05-10.01L189.01-10.01L189.01-29.98Z" fill="#85a2b6"></path></g></g><style>text {
  font-size: 64px;
  font-family: Arial Black;
  dominant-baseline: central;
  text-anchor: middle;
}</style></svg>